<mxfile host="app.diagrams.net" modified="2021-05-05T02:00:03.581Z" agent="5.0 (Windows NT 10.0; Win64; x64) AppleWebKit/537.36 (KHTML, like Gecko) Chrome/90.0.4430.93 Safari/537.36" etag="Mq1cG3MHCVVmyVl4MwgQ" version="14.6.10" type="github">
  <diagram id="C5RBs43oDa-KdzZeNtuy" name="Page-1">
    <mxGraphModel dx="1865" dy="580" grid="1" gridSize="10" guides="1" tooltips="1" connect="1" arrows="1" fold="1" page="1" pageScale="1" pageWidth="827" pageHeight="1169" math="0" shadow="0">
      <root>
        <mxCell id="WIyWlLk6GJQsqaUBKTNV-0" />
        <mxCell id="WIyWlLk6GJQsqaUBKTNV-1" parent="WIyWlLk6GJQsqaUBKTNV-0" />
        <mxCell id="yWIuxahAhiHiK1xlwGg8-131" value="CHITITETDONHANG" style="swimlane;fontStyle=2;align=center;verticalAlign=top;childLayout=stackLayout;horizontal=1;startSize=26;horizontalStack=0;resizeParent=1;resizeLast=0;collapsible=1;marginBottom=0;rounded=0;shadow=0;strokeWidth=1;" vertex="1" parent="WIyWlLk6GJQsqaUBKTNV-1">
          <mxGeometry y="471" width="130" height="89" as="geometry">
            <mxRectangle x="230" y="140" width="160" height="26" as="alternateBounds" />
          </mxGeometry>
        </mxCell>
        <mxCell id="yWIuxahAhiHiK1xlwGg8-135" value="soluong" style="text;align=left;verticalAlign=top;spacingLeft=4;spacingRight=4;overflow=hidden;rotatable=0;points=[[0,0.5],[1,0.5]];portConstraint=eastwest;rounded=0;shadow=0;html=0;" vertex="1" parent="yWIuxahAhiHiK1xlwGg8-131">
          <mxGeometry y="26" width="130" height="28" as="geometry" />
        </mxCell>
        <mxCell id="yWIuxahAhiHiK1xlwGg8-136" value="tien" style="text;align=left;verticalAlign=top;spacingLeft=4;spacingRight=4;overflow=hidden;rotatable=0;points=[[0,0.5],[1,0.5]];portConstraint=eastwest;rounded=0;shadow=0;html=0;" vertex="1" parent="yWIuxahAhiHiK1xlwGg8-131">
          <mxGeometry y="54" width="130" height="28" as="geometry" />
        </mxCell>
        <mxCell id="yWIuxahAhiHiK1xlwGg8-141" value="GIOHANG" style="swimlane;fontStyle=0;align=center;verticalAlign=top;childLayout=stackLayout;horizontal=1;startSize=26;horizontalStack=0;resizeParent=1;resizeLast=0;collapsible=1;marginBottom=0;rounded=0;shadow=0;strokeWidth=1;" vertex="1" parent="WIyWlLk6GJQsqaUBKTNV-1">
          <mxGeometry x="-190" y="620" width="130" height="60" as="geometry">
            <mxRectangle x="340" y="380" width="170" height="26" as="alternateBounds" />
          </mxGeometry>
        </mxCell>
        <mxCell id="yWIuxahAhiHiK1xlwGg8-143" value="Â BAIVIET" style="swimlane;fontStyle=2;align=center;verticalAlign=top;childLayout=stackLayout;horizontal=1;startSize=26;horizontalStack=0;resizeParent=1;resizeLast=0;collapsible=1;marginBottom=0;rounded=0;shadow=0;strokeWidth=1;" vertex="1" parent="WIyWlLk6GJQsqaUBKTNV-1">
          <mxGeometry x="490" y="444" width="100" height="166" as="geometry">
            <mxRectangle x="230" y="140" width="160" height="26" as="alternateBounds" />
          </mxGeometry>
        </mxCell>
        <mxCell id="yWIuxahAhiHiK1xlwGg8-144" value="idbaiviet" style="text;align=left;verticalAlign=top;spacingLeft=4;spacingRight=4;overflow=hidden;rotatable=0;points=[[0,0.5],[1,0.5]];portConstraint=eastwest;rounded=0;shadow=0;html=0;" vertex="1" parent="yWIuxahAhiHiK1xlwGg8-143">
          <mxGeometry y="26" width="100" height="26" as="geometry" />
        </mxCell>
        <mxCell id="yWIuxahAhiHiK1xlwGg8-145" value="idsach" style="text;align=left;verticalAlign=top;spacingLeft=4;spacingRight=4;overflow=hidden;rotatable=0;points=[[0,0.5],[1,0.5]];portConstraint=eastwest;rounded=0;shadow=0;html=0;" vertex="1" parent="yWIuxahAhiHiK1xlwGg8-143">
          <mxGeometry y="52" width="100" height="28" as="geometry" />
        </mxCell>
        <mxCell id="yWIuxahAhiHiK1xlwGg8-146" value="idloaisach" style="text;align=left;verticalAlign=top;spacingLeft=4;spacingRight=4;overflow=hidden;rotatable=0;points=[[0,0.5],[1,0.5]];portConstraint=eastwest;rounded=0;shadow=0;html=0;" vertex="1" parent="yWIuxahAhiHiK1xlwGg8-143">
          <mxGeometry y="80" width="100" height="30" as="geometry" />
        </mxCell>
        <mxCell id="yWIuxahAhiHiK1xlwGg8-147" value="baiviet" style="text;align=left;verticalAlign=top;spacingLeft=4;spacingRight=4;overflow=hidden;rotatable=0;points=[[0,0.5],[1,0.5]];portConstraint=eastwest;rounded=0;shadow=0;html=0;" vertex="1" parent="yWIuxahAhiHiK1xlwGg8-143">
          <mxGeometry y="110" width="100" height="28" as="geometry" />
        </mxCell>
        <mxCell id="yWIuxahAhiHiK1xlwGg8-148" value="idtaikhoan" style="text;align=left;verticalAlign=top;spacingLeft=4;spacingRight=4;overflow=hidden;rotatable=0;points=[[0,0.5],[1,0.5]];portConstraint=eastwest;rounded=0;shadow=0;html=0;" vertex="1" parent="yWIuxahAhiHiK1xlwGg8-143">
          <mxGeometry y="138" width="100" height="28" as="geometry" />
        </mxCell>
        <mxCell id="yWIuxahAhiHiK1xlwGg8-160" value="DONHANG" style="swimlane;fontStyle=2;align=center;verticalAlign=top;childLayout=stackLayout;horizontal=1;startSize=26;horizontalStack=0;resizeParent=1;resizeLast=0;collapsible=1;marginBottom=0;rounded=0;shadow=0;strokeWidth=1;" vertex="1" parent="WIyWlLk6GJQsqaUBKTNV-1">
          <mxGeometry x="212" y="600" width="108" height="270" as="geometry">
            <mxRectangle x="230" y="140" width="160" height="26" as="alternateBounds" />
          </mxGeometry>
        </mxCell>
        <mxCell id="yWIuxahAhiHiK1xlwGg8-163" value="sdt" style="text;align=left;verticalAlign=top;spacingLeft=4;spacingRight=4;overflow=hidden;rotatable=0;points=[[0,0.5],[1,0.5]];portConstraint=eastwest;rounded=0;shadow=0;html=0;" vertex="1" parent="yWIuxahAhiHiK1xlwGg8-160">
          <mxGeometry y="26" width="108" height="30" as="geometry" />
        </mxCell>
        <mxCell id="yWIuxahAhiHiK1xlwGg8-164" value="tongtien" style="text;align=left;verticalAlign=top;spacingLeft=4;spacingRight=4;overflow=hidden;rotatable=0;points=[[0,0.5],[1,0.5]];portConstraint=eastwest;rounded=0;shadow=0;html=0;" vertex="1" parent="yWIuxahAhiHiK1xlwGg8-160">
          <mxGeometry y="56" width="108" height="28" as="geometry" />
        </mxCell>
        <mxCell id="yWIuxahAhiHiK1xlwGg8-165" value="tinhtrangthanhtoan" style="text;align=left;verticalAlign=top;spacingLeft=4;spacingRight=4;overflow=hidden;rotatable=0;points=[[0,0.5],[1,0.5]];portConstraint=eastwest;rounded=0;shadow=0;html=0;" vertex="1" parent="yWIuxahAhiHiK1xlwGg8-160">
          <mxGeometry y="84" width="108" height="28" as="geometry" />
        </mxCell>
        <mxCell id="yWIuxahAhiHiK1xlwGg8-166" value="tinhtranggiao" style="text;align=left;verticalAlign=top;spacingLeft=4;spacingRight=4;overflow=hidden;rotatable=0;points=[[0,0.5],[1,0.5]];portConstraint=eastwest;" vertex="1" parent="yWIuxahAhiHiK1xlwGg8-160">
          <mxGeometry y="112" width="108" height="26" as="geometry" />
        </mxCell>
        <mxCell id="yWIuxahAhiHiK1xlwGg8-167" value="duyetboitaikhoan" style="text;align=left;verticalAlign=top;spacingLeft=4;spacingRight=4;overflow=hidden;rotatable=0;points=[[0,0.5],[1,0.5]];portConstraint=eastwest;" vertex="1" parent="yWIuxahAhiHiK1xlwGg8-160">
          <mxGeometry y="138" width="108" height="26" as="geometry" />
        </mxCell>
        <mxCell id="yWIuxahAhiHiK1xlwGg8-168" value="cachthucgiaohang" style="text;align=left;verticalAlign=top;spacingLeft=4;spacingRight=4;overflow=hidden;rotatable=0;points=[[0,0.5],[1,0.5]];portConstraint=eastwest;" vertex="1" parent="yWIuxahAhiHiK1xlwGg8-160">
          <mxGeometry y="164" width="108" height="26" as="geometry" />
        </mxCell>
        <mxCell id="yWIuxahAhiHiK1xlwGg8-169" value="ngaydat" style="text;align=left;verticalAlign=top;spacingLeft=4;spacingRight=4;overflow=hidden;rotatable=0;points=[[0,0.5],[1,0.5]];portConstraint=eastwest;" vertex="1" parent="yWIuxahAhiHiK1xlwGg8-160">
          <mxGeometry y="190" width="108" height="26" as="geometry" />
        </mxCell>
        <mxCell id="yWIuxahAhiHiK1xlwGg8-170" value="ngaygiao" style="text;align=left;verticalAlign=top;spacingLeft=4;spacingRight=4;overflow=hidden;rotatable=0;points=[[0,0.5],[1,0.5]];portConstraint=eastwest;" vertex="1" parent="yWIuxahAhiHiK1xlwGg8-160">
          <mxGeometry y="216" width="108" height="26" as="geometry" />
        </mxCell>
        <mxCell id="yWIuxahAhiHiK1xlwGg8-171" value="soluong" style="text;align=left;verticalAlign=top;spacingLeft=4;spacingRight=4;overflow=hidden;rotatable=0;points=[[0,0.5],[1,0.5]];portConstraint=eastwest;" vertex="1" parent="yWIuxahAhiHiK1xlwGg8-160">
          <mxGeometry y="242" width="108" height="26" as="geometry" />
        </mxCell>
        <mxCell id="yWIuxahAhiHiK1xlwGg8-172" value="NHACUNGCAP" style="swimlane;fontStyle=2;align=center;verticalAlign=top;childLayout=stackLayout;horizontal=1;startSize=26;horizontalStack=0;resizeParent=1;resizeLast=0;collapsible=1;marginBottom=0;rounded=0;shadow=0;strokeWidth=1;" vertex="1" parent="WIyWlLk6GJQsqaUBKTNV-1">
          <mxGeometry x="-210" y="716" width="100" height="124" as="geometry">
            <mxRectangle x="230" y="140" width="160" height="26" as="alternateBounds" />
          </mxGeometry>
        </mxCell>
        <mxCell id="yWIuxahAhiHiK1xlwGg8-175" value="diachi" style="text;align=left;verticalAlign=top;spacingLeft=4;spacingRight=4;overflow=hidden;rotatable=0;points=[[0,0.5],[1,0.5]];portConstraint=eastwest;rounded=0;shadow=0;html=0;" vertex="1" parent="yWIuxahAhiHiK1xlwGg8-172">
          <mxGeometry y="26" width="100" height="30" as="geometry" />
        </mxCell>
        <mxCell id="yWIuxahAhiHiK1xlwGg8-176" value="sdt" style="text;align=left;verticalAlign=top;spacingLeft=4;spacingRight=4;overflow=hidden;rotatable=0;points=[[0,0.5],[1,0.5]];portConstraint=eastwest;rounded=0;shadow=0;html=0;" vertex="1" parent="yWIuxahAhiHiK1xlwGg8-172">
          <mxGeometry y="56" width="100" height="30" as="geometry" />
        </mxCell>
        <mxCell id="yWIuxahAhiHiK1xlwGg8-177" value="soluong" style="text;align=left;verticalAlign=top;spacingLeft=4;spacingRight=4;overflow=hidden;rotatable=0;points=[[0,0.5],[1,0.5]];portConstraint=eastwest;rounded=0;shadow=0;html=0;" vertex="1" parent="yWIuxahAhiHiK1xlwGg8-172">
          <mxGeometry y="86" width="100" height="28" as="geometry" />
        </mxCell>
        <mxCell id="yWIuxahAhiHiK1xlwGg8-191" value="IMG" style="swimlane;fontStyle=0;align=center;verticalAlign=top;childLayout=stackLayout;horizontal=1;startSize=26;horizontalStack=0;resizeParent=1;resizeLast=0;collapsible=1;marginBottom=0;rounded=0;shadow=0;strokeWidth=1;" vertex="1" parent="WIyWlLk6GJQsqaUBKTNV-1">
          <mxGeometry x="-170" y="432.5" width="70" height="35" as="geometry">
            <mxRectangle x="330" y="360" width="170" height="26" as="alternateBounds" />
          </mxGeometry>
        </mxCell>
        <mxCell id="yWIuxahAhiHiK1xlwGg8-195" value="PHIEUNHAPSACH" style="swimlane;fontStyle=2;align=center;verticalAlign=top;childLayout=stackLayout;horizontal=1;startSize=26;horizontalStack=0;resizeParent=1;resizeLast=0;collapsible=1;marginBottom=0;rounded=0;shadow=0;strokeWidth=1;" vertex="1" parent="WIyWlLk6GJQsqaUBKTNV-1">
          <mxGeometry y="690" width="120" height="120" as="geometry">
            <mxRectangle x="650" y="170" width="160" height="26" as="alternateBounds" />
          </mxGeometry>
        </mxCell>
        <mxCell id="yWIuxahAhiHiK1xlwGg8-199" value="soluong" style="text;align=left;verticalAlign=top;spacingLeft=4;spacingRight=4;overflow=hidden;rotatable=0;points=[[0,0.5],[1,0.5]];portConstraint=eastwest;rounded=0;shadow=0;html=0;" vertex="1" parent="yWIuxahAhiHiK1xlwGg8-195">
          <mxGeometry y="26" width="120" height="28" as="geometry" />
        </mxCell>
        <mxCell id="yWIuxahAhiHiK1xlwGg8-200" value="tien" style="text;align=left;verticalAlign=top;spacingLeft=4;spacingRight=4;overflow=hidden;rotatable=0;points=[[0,0.5],[1,0.5]];portConstraint=eastwest;rounded=0;shadow=0;html=0;" vertex="1" parent="yWIuxahAhiHiK1xlwGg8-195">
          <mxGeometry y="54" width="120" height="28" as="geometry" />
        </mxCell>
        <mxCell id="yWIuxahAhiHiK1xlwGg8-201" value="ngaynhap" style="text;align=left;verticalAlign=top;spacingLeft=4;spacingRight=4;overflow=hidden;rotatable=0;points=[[0,0.5],[1,0.5]];portConstraint=eastwest;" vertex="1" parent="yWIuxahAhiHiK1xlwGg8-195">
          <mxGeometry y="82" width="120" height="26" as="geometry" />
        </mxCell>
        <mxCell id="yWIuxahAhiHiK1xlwGg8-203" value="SACH" style="swimlane;fontStyle=2;align=center;verticalAlign=top;childLayout=stackLayout;horizontal=1;startSize=26;horizontalStack=0;resizeParent=1;resizeLast=0;collapsible=1;marginBottom=0;rounded=0;shadow=0;strokeWidth=1;" vertex="1" parent="WIyWlLk6GJQsqaUBKTNV-1">
          <mxGeometry x="260" y="325" width="110" height="270" as="geometry">
            <mxRectangle x="650" y="170" width="160" height="26" as="alternateBounds" />
          </mxGeometry>
        </mxCell>
        <mxCell id="yWIuxahAhiHiK1xlwGg8-204" value="idsach" style="text;align=left;verticalAlign=top;spacingLeft=4;spacingRight=4;overflow=hidden;rotatable=0;points=[[0,0.5],[1,0.5]];portConstraint=eastwest;rounded=0;shadow=0;html=0;" vertex="1" parent="yWIuxahAhiHiK1xlwGg8-203">
          <mxGeometry y="26" width="110" height="26" as="geometry" />
        </mxCell>
        <mxCell id="yWIuxahAhiHiK1xlwGg8-205" value="tensach" style="text;align=left;verticalAlign=top;spacingLeft=4;spacingRight=4;overflow=hidden;rotatable=0;points=[[0,0.5],[1,0.5]];portConstraint=eastwest;rounded=0;shadow=0;html=0;" vertex="1" parent="yWIuxahAhiHiK1xlwGg8-203">
          <mxGeometry y="52" width="110" height="28" as="geometry" />
        </mxCell>
        <mxCell id="yWIuxahAhiHiK1xlwGg8-206" value="soluong" style="text;align=left;verticalAlign=top;spacingLeft=4;spacingRight=4;overflow=hidden;rotatable=0;points=[[0,0.5],[1,0.5]];portConstraint=eastwest;rounded=0;shadow=0;html=0;" vertex="1" parent="yWIuxahAhiHiK1xlwGg8-203">
          <mxGeometry y="80" width="110" height="30" as="geometry" />
        </mxCell>
        <mxCell id="yWIuxahAhiHiK1xlwGg8-207" value="gia" style="text;align=left;verticalAlign=top;spacingLeft=4;spacingRight=4;overflow=hidden;rotatable=0;points=[[0,0.5],[1,0.5]];portConstraint=eastwest;rounded=0;shadow=0;html=0;" vertex="1" parent="yWIuxahAhiHiK1xlwGg8-203">
          <mxGeometry y="110" width="110" height="28" as="geometry" />
        </mxCell>
        <mxCell id="yWIuxahAhiHiK1xlwGg8-208" value="tennxb" style="text;align=left;verticalAlign=top;spacingLeft=4;spacingRight=4;overflow=hidden;rotatable=0;points=[[0,0.5],[1,0.5]];portConstraint=eastwest;rounded=0;shadow=0;html=0;" vertex="1" parent="yWIuxahAhiHiK1xlwGg8-203">
          <mxGeometry y="138" width="110" height="28" as="geometry" />
        </mxCell>
        <mxCell id="yWIuxahAhiHiK1xlwGg8-209" value="tentacgia" style="text;align=left;verticalAlign=top;spacingLeft=4;spacingRight=4;overflow=hidden;rotatable=0;points=[[0,0.5],[1,0.5]];portConstraint=eastwest;" vertex="1" parent="yWIuxahAhiHiK1xlwGg8-203">
          <mxGeometry y="166" width="110" height="26" as="geometry" />
        </mxCell>
        <mxCell id="yWIuxahAhiHiK1xlwGg8-210" value="sotrangÂ " style="text;align=left;verticalAlign=top;spacingLeft=4;spacingRight=4;overflow=hidden;rotatable=0;points=[[0,0.5],[1,0.5]];portConstraint=eastwest;" vertex="1" parent="yWIuxahAhiHiK1xlwGg8-203">
          <mxGeometry y="192" width="110" height="26" as="geometry" />
        </mxCell>
        <mxCell id="yWIuxahAhiHiK1xlwGg8-211" value="ngayxuatban" style="text;align=left;verticalAlign=top;spacingLeft=4;spacingRight=4;overflow=hidden;rotatable=0;points=[[0,0.5],[1,0.5]];portConstraint=eastwest;" vertex="1" parent="yWIuxahAhiHiK1xlwGg8-203">
          <mxGeometry y="218" width="110" height="26" as="geometry" />
        </mxCell>
        <mxCell id="yWIuxahAhiHiK1xlwGg8-212" value="idloai" style="text;align=left;verticalAlign=top;spacingLeft=4;spacingRight=4;overflow=hidden;rotatable=0;points=[[0,0.5],[1,0.5]];portConstraint=eastwest;" vertex="1" parent="yWIuxahAhiHiK1xlwGg8-203">
          <mxGeometry y="244" width="110" height="26" as="geometry" />
        </mxCell>
        <mxCell id="yWIuxahAhiHiK1xlwGg8-213" value="PHANLOAISACH" style="swimlane;fontStyle=0;align=center;verticalAlign=top;childLayout=stackLayout;horizontal=1;startSize=26;horizontalStack=0;resizeParent=1;resizeLast=0;collapsible=1;marginBottom=0;rounded=0;shadow=0;strokeWidth=1;" vertex="1" parent="WIyWlLk6GJQsqaUBKTNV-1">
          <mxGeometry x="454" y="295" width="106" height="120" as="geometry">
            <mxRectangle x="330" y="360" width="170" height="26" as="alternateBounds" />
          </mxGeometry>
        </mxCell>
        <mxCell id="yWIuxahAhiHiK1xlwGg8-215" value="loai" style="text;align=left;verticalAlign=top;spacingLeft=4;spacingRight=4;overflow=hidden;rotatable=0;points=[[0,0.5],[1,0.5]];portConstraint=eastwest;rounded=0;shadow=0;html=0;" vertex="1" parent="yWIuxahAhiHiK1xlwGg8-213">
          <mxGeometry y="26" width="106" height="28" as="geometry" />
        </mxCell>
        <mxCell id="yWIuxahAhiHiK1xlwGg8-216" value="soluong" style="text;align=left;verticalAlign=top;spacingLeft=4;spacingRight=4;overflow=hidden;rotatable=0;points=[[0,0.5],[1,0.5]];portConstraint=eastwest;rounded=0;shadow=0;html=0;" vertex="1" parent="yWIuxahAhiHiK1xlwGg8-213">
          <mxGeometry y="54" width="106" height="28" as="geometry" />
        </mxCell>
        <mxCell id="yWIuxahAhiHiK1xlwGg8-217" value="" style="endArrow=none;html=1;entryX=-0.012;entryY=-0.059;entryDx=0;entryDy=0;entryPerimeter=0;exitX=1.026;exitY=-0.185;exitDx=0;exitDy=0;exitPerimeter=0;" edge="1" parent="WIyWlLk6GJQsqaUBKTNV-1" source="yWIuxahAhiHiK1xlwGg8-250" target="yWIuxahAhiHiK1xlwGg8-209">
          <mxGeometry width="50" height="50" relative="1" as="geometry">
            <mxPoint x="-80" y="810" as="sourcePoint" />
            <mxPoint x="280" y="500" as="targetPoint" />
            <Array as="points" />
          </mxGeometry>
        </mxCell>
        <mxCell id="yWIuxahAhiHiK1xlwGg8-218" value="" style="endArrow=none;html=1;entryX=1;entryY=0.5;entryDx=0;entryDy=0;exitX=0;exitY=0.5;exitDx=0;exitDy=0;" edge="1" parent="WIyWlLk6GJQsqaUBKTNV-1">
          <mxGeometry width="50" height="50" relative="1" as="geometry">
            <mxPoint y="730" as="sourcePoint" />
            <mxPoint x="-110" y="755" as="targetPoint" />
          </mxGeometry>
        </mxCell>
        <mxCell id="yWIuxahAhiHiK1xlwGg8-219" value="" style="endArrow=none;html=1;exitX=1;exitY=0.5;exitDx=0;exitDy=0;entryX=0.005;entryY=1.052;entryDx=0;entryDy=0;entryPerimeter=0;" edge="1" parent="WIyWlLk6GJQsqaUBKTNV-1" target="yWIuxahAhiHiK1xlwGg8-204">
          <mxGeometry width="50" height="50" relative="1" as="geometry">
            <mxPoint x="-100" y="458" as="sourcePoint" />
            <mxPoint x="290" y="360" as="targetPoint" />
            <Array as="points">
              <mxPoint x="130" y="410" />
            </Array>
          </mxGeometry>
        </mxCell>
        <mxCell id="yWIuxahAhiHiK1xlwGg8-220" value="" style="endArrow=none;html=1;exitX=1;exitY=0.5;exitDx=0;exitDy=0;entryX=0;entryY=0.5;entryDx=0;entryDy=0;" edge="1" parent="WIyWlLk6GJQsqaUBKTNV-1" target="yWIuxahAhiHiK1xlwGg8-207">
          <mxGeometry width="50" height="50" relative="1" as="geometry">
            <mxPoint x="130" y="512" as="sourcePoint" />
            <mxPoint x="286" y="455" as="targetPoint" />
          </mxGeometry>
        </mxCell>
        <mxCell id="yWIuxahAhiHiK1xlwGg8-221" value="" style="endArrow=none;html=1;entryX=0;entryY=0.5;entryDx=0;entryDy=0;exitX=1;exitY=0.5;exitDx=0;exitDy=0;" edge="1" parent="WIyWlLk6GJQsqaUBKTNV-1" source="yWIuxahAhiHiK1xlwGg8-206" target="yWIuxahAhiHiK1xlwGg8-146">
          <mxGeometry width="50" height="50" relative="1" as="geometry">
            <mxPoint x="400" y="380" as="sourcePoint" />
            <mxPoint x="420" y="350" as="targetPoint" />
          </mxGeometry>
        </mxCell>
        <mxCell id="yWIuxahAhiHiK1xlwGg8-222" value="" style="endArrow=none;html=1;entryX=0;entryY=0.5;entryDx=0;entryDy=0;exitX=0.399;exitY=0.002;exitDx=0;exitDy=0;exitPerimeter=0;" edge="1" parent="WIyWlLk6GJQsqaUBKTNV-1" source="yWIuxahAhiHiK1xlwGg8-203">
          <mxGeometry width="50" height="50" relative="1" as="geometry">
            <mxPoint x="350" y="320" as="sourcePoint" />
            <mxPoint x="454" y="338" as="targetPoint" />
          </mxGeometry>
        </mxCell>
        <mxCell id="yWIuxahAhiHiK1xlwGg8-223" value="" style="endArrow=none;html=1;exitX=0;exitY=0.5;exitDx=0;exitDy=0;entryX=0;entryY=0.5;entryDx=0;entryDy=0;" edge="1" parent="WIyWlLk6GJQsqaUBKTNV-1" source="yWIuxahAhiHiK1xlwGg8-216" target="yWIuxahAhiHiK1xlwGg8-145">
          <mxGeometry width="50" height="50" relative="1" as="geometry">
            <mxPoint x="370" y="400" as="sourcePoint" />
            <mxPoint x="420" y="350" as="targetPoint" />
            <Array as="points">
              <mxPoint x="380" y="410" />
            </Array>
          </mxGeometry>
        </mxCell>
        <mxCell id="yWIuxahAhiHiK1xlwGg8-229" value="" style="endArrow=none;html=1;exitX=1;exitY=0.5;exitDx=0;exitDy=0;entryX=0;entryY=0.5;entryDx=0;entryDy=0;" edge="1" parent="WIyWlLk6GJQsqaUBKTNV-1">
          <mxGeometry width="50" height="50" relative="1" as="geometry">
            <mxPoint x="-60" y="658" as="sourcePoint" />
            <mxPoint y="510" as="targetPoint" />
          </mxGeometry>
        </mxCell>
        <mxCell id="yWIuxahAhiHiK1xlwGg8-230" value="" style="endArrow=none;html=1;exitX=1;exitY=0.5;exitDx=0;exitDy=0;entryX=0;entryY=0.5;entryDx=0;entryDy=0;" edge="1" parent="WIyWlLk6GJQsqaUBKTNV-1" source="yWIuxahAhiHiK1xlwGg8-135">
          <mxGeometry width="50" height="50" relative="1" as="geometry">
            <mxPoint x="370" y="610" as="sourcePoint" />
            <mxPoint x="212" y="640" as="targetPoint" />
          </mxGeometry>
        </mxCell>
        <mxCell id="yWIuxahAhiHiK1xlwGg8-231" value="1..*" style="text;html=1;align=center;verticalAlign=middle;whiteSpace=wrap;rounded=0;" vertex="1" parent="WIyWlLk6GJQsqaUBKTNV-1">
          <mxGeometry x="454" y="467.5" width="40" height="20" as="geometry" />
        </mxCell>
        <mxCell id="yWIuxahAhiHiK1xlwGg8-232" value="1..*" style="text;html=1;align=center;verticalAlign=middle;whiteSpace=wrap;rounded=0;" vertex="1" parent="WIyWlLk6GJQsqaUBKTNV-1">
          <mxGeometry x="-100" y="429" width="40" height="20" as="geometry" />
        </mxCell>
        <mxCell id="yWIuxahAhiHiK1xlwGg8-233" value="1..*" style="text;html=1;align=center;verticalAlign=middle;whiteSpace=wrap;rounded=0;" vertex="1" parent="WIyWlLk6GJQsqaUBKTNV-1">
          <mxGeometry x="-40" y="511" width="40" height="20" as="geometry" />
        </mxCell>
        <mxCell id="yWIuxahAhiHiK1xlwGg8-234" value="1..*" style="text;html=1;align=center;verticalAlign=middle;whiteSpace=wrap;rounded=0;" vertex="1" parent="WIyWlLk6GJQsqaUBKTNV-1">
          <mxGeometry x="130" y="575" width="40" height="20" as="geometry" />
        </mxCell>
        <mxCell id="yWIuxahAhiHiK1xlwGg8-235" value="1..*" style="text;html=1;align=center;verticalAlign=middle;whiteSpace=wrap;rounded=0;" vertex="1" parent="WIyWlLk6GJQsqaUBKTNV-1">
          <mxGeometry x="130" y="531" width="40" height="20" as="geometry" />
        </mxCell>
        <mxCell id="yWIuxahAhiHiK1xlwGg8-236" value="" style="endArrow=none;html=1;exitX=1;exitY=0.5;exitDx=0;exitDy=0;entryX=0;entryY=0.5;entryDx=0;entryDy=0;" edge="1" parent="WIyWlLk6GJQsqaUBKTNV-1" target="yWIuxahAhiHiK1xlwGg8-235">
          <mxGeometry width="50" height="50" relative="1" as="geometry">
            <mxPoint x="130" y="512" as="sourcePoint" />
            <mxPoint x="258" y="449" as="targetPoint" />
          </mxGeometry>
        </mxCell>
        <mxCell id="yWIuxahAhiHiK1xlwGg8-239" value="1..*" style="text;html=1;align=center;verticalAlign=middle;whiteSpace=wrap;rounded=0;" vertex="1" parent="WIyWlLk6GJQsqaUBKTNV-1">
          <mxGeometry x="-30" y="735" width="40" height="20" as="geometry" />
        </mxCell>
        <mxCell id="yWIuxahAhiHiK1xlwGg8-240" value="" style="endArrow=none;html=1;entryX=1;entryY=0.5;entryDx=0;entryDy=0;" edge="1" parent="WIyWlLk6GJQsqaUBKTNV-1" target="yWIuxahAhiHiK1xlwGg8-239">
          <mxGeometry width="50" height="50" relative="1" as="geometry">
            <mxPoint x="13" y="744" as="sourcePoint" />
            <mxPoint x="-50" y="754.9999999999998" as="targetPoint" />
          </mxGeometry>
        </mxCell>
        <mxCell id="yWIuxahAhiHiK1xlwGg8-246" value="1" style="text;html=1;align=center;verticalAlign=middle;whiteSpace=wrap;rounded=0;" vertex="1" parent="WIyWlLk6GJQsqaUBKTNV-1">
          <mxGeometry x="170" y="670" width="40" height="20" as="geometry" />
        </mxCell>
        <mxCell id="yWIuxahAhiHiK1xlwGg8-247" value="1" style="text;html=1;align=center;verticalAlign=middle;whiteSpace=wrap;rounded=0;" vertex="1" parent="WIyWlLk6GJQsqaUBKTNV-1">
          <mxGeometry x="100" y="730" width="40" height="20" as="geometry" />
        </mxCell>
        <mxCell id="yWIuxahAhiHiK1xlwGg8-248" value="1" style="text;html=1;align=center;verticalAlign=middle;whiteSpace=wrap;rounded=0;" vertex="1" parent="WIyWlLk6GJQsqaUBKTNV-1">
          <mxGeometry x="218" y="430" width="40" height="20" as="geometry" />
        </mxCell>
        <mxCell id="yWIuxahAhiHiK1xlwGg8-249" value="1" style="text;html=1;align=center;verticalAlign=middle;whiteSpace=wrap;rounded=0;" vertex="1" parent="WIyWlLk6GJQsqaUBKTNV-1">
          <mxGeometry x="-70" y="643" width="40" height="20" as="geometry" />
        </mxCell>
        <mxCell id="yWIuxahAhiHiK1xlwGg8-250" value="1..*" style="text;html=1;align=center;verticalAlign=middle;whiteSpace=wrap;rounded=0;" vertex="1" parent="WIyWlLk6GJQsqaUBKTNV-1">
          <mxGeometry x="218" y="497" width="40" height="20" as="geometry" />
        </mxCell>
        <mxCell id="yWIuxahAhiHiK1xlwGg8-251" value="" style="endArrow=none;html=1;entryX=1;entryY=1;entryDx=0;entryDy=0;exitX=1.026;exitY=-0.185;exitDx=0;exitDy=0;exitPerimeter=0;" edge="1" parent="WIyWlLk6GJQsqaUBKTNV-1" target="yWIuxahAhiHiK1xlwGg8-250">
          <mxGeometry width="50" height="50" relative="1" as="geometry">
            <mxPoint x="112.8599999999999" y="710.8199999999999" as="sourcePoint" />
            <mxPoint x="256.6800000000003" y="489.4659999999999" as="targetPoint" />
            <Array as="points">
              <mxPoint x="140" y="680" />
              <mxPoint x="170" y="580" />
            </Array>
          </mxGeometry>
        </mxCell>
        <mxCell id="yWIuxahAhiHiK1xlwGg8-252" value="1" style="text;html=1;align=center;verticalAlign=middle;whiteSpace=wrap;rounded=0;" vertex="1" parent="WIyWlLk6GJQsqaUBKTNV-1">
          <mxGeometry x="220" y="360" width="40" height="20" as="geometry" />
        </mxCell>
        <mxCell id="yWIuxahAhiHiK1xlwGg8-253" value="1" style="text;html=1;align=center;verticalAlign=middle;whiteSpace=wrap;rounded=0;" vertex="1" parent="WIyWlLk6GJQsqaUBKTNV-1">
          <mxGeometry x="357" y="409" width="40" height="20" as="geometry" />
        </mxCell>
        <mxCell id="yWIuxahAhiHiK1xlwGg8-254" value="1" style="text;html=1;align=center;verticalAlign=middle;whiteSpace=wrap;rounded=0;" vertex="1" parent="WIyWlLk6GJQsqaUBKTNV-1">
          <mxGeometry x="450" y="540" width="40" height="20" as="geometry" />
        </mxCell>
        <mxCell id="yWIuxahAhiHiK1xlwGg8-258" value="1" style="text;html=1;align=center;verticalAlign=middle;whiteSpace=wrap;rounded=0;" vertex="1" parent="WIyWlLk6GJQsqaUBKTNV-1">
          <mxGeometry x="424" y="380" width="40" height="20" as="geometry" />
        </mxCell>
        <mxCell id="yWIuxahAhiHiK1xlwGg8-259" value="1" style="text;html=1;align=center;verticalAlign=middle;whiteSpace=wrap;rounded=0;" vertex="1" parent="WIyWlLk6GJQsqaUBKTNV-1">
          <mxGeometry x="414" y="310" width="40" height="20" as="geometry" />
        </mxCell>
        <mxCell id="yWIuxahAhiHiK1xlwGg8-260" value="1..*" style="text;html=1;align=center;verticalAlign=middle;whiteSpace=wrap;rounded=0;" vertex="1" parent="WIyWlLk6GJQsqaUBKTNV-1">
          <mxGeometry x="300" y="305" width="40" height="20" as="geometry" />
        </mxCell>
        <mxCell id="yWIuxahAhiHiK1xlwGg8-261" value="1" style="text;html=1;align=center;verticalAlign=middle;whiteSpace=wrap;rounded=0;" vertex="1" parent="WIyWlLk6GJQsqaUBKTNV-1">
          <mxGeometry x="-110" y="735" width="40" height="20" as="geometry" />
        </mxCell>
      </root>
    </mxGraphModel>
  </diagram>
</mxfile>
